<svg xmlns="http://www.w3.org/2000/svg" viewBox="0 0 150 130"><g id="heart-1" transform="rotate(-8 45 55)"><path d="M44.33 78.27C40.44 74.13 23.61 61.37 20.96 53.44C18.3 45.51 24.35 32.05 28.38 30.7C32.42 29.34 39.67 45.2 45.18 45.32C50.68 45.43 57.41 30.16 61.41 31.38C65.41 32.6 72.03 44.83 69.19 52.65C66.34 60.46 48.48 74 44.33 78.27Z" fill="rgba(224,80,127,.35)" stroke="#cf3a2d" stroke-width="3" stroke-linecap="round" stroke-linejoin="round"></path></g><g id="heart-2" transform="rotate(10 105 40)"><path d="M105.41 54.97C102.78 52.27 91.48 43.91 89.68 38.75C87.88 33.59 92.03 25 94.59 24.01C97.15 23.02 101.42 32.81 105.05 32.82C108.67 32.82 113.7 23.01 116.34 24.05C118.97 25.08 122.68 33.86 120.86 39.02C119.04 44.17 107.98 52.31 105.41 54.97Z" fill="rgba(224,80,127,.35)" stroke="#cf3a2d" stroke-width="3" stroke-linecap="round" stroke-linejoin="round"></path></g><g id="heart-3" transform="rotate(-4 95 95)"><path d="M94.92 104.96C93.29 103.17 86.37 97.67 85.12 94.24C83.86 90.81 85.86 85.08 87.4 84.38C88.94 83.67 91.93 90.06 94.36 89.99C96.78 89.91 100.12 83.27 101.95 83.93C103.78 84.6 106.53 90.46 105.36 93.96C104.19 97.46 96.66 103.12 94.92 104.96Z" fill="rgba(224,80,127,.35)" stroke="#cf3a2d" stroke-width="3" stroke-linecap="round" stroke-linejoin="round"></path></g></svg>